<svg width="501" height="500" viewBox="0 0 501 500" fill="none" xmlns="http://www.w3.org/2000/svg">
<path d="M137.5 32L143.5 28L147 18.5L150.5 17.5H156L160.5 11.5L166.5 6L189.5 9L216 1L227.5 2.5L238.5 5.5L242 8L243.5 10L248.5 7L261 4L268.5 0H276.5L284.5 5L296 10H299L302.5 5L305.5 4L322.5 11.5L338 14.5L356 19L361 22.5L364.5 25L370.5 26L374 30L377.5 39.5L384 44L396.5 46.5L409 53L417 54.5L423 63.5L436 77L448 90.5L452 98L455.5 110L468.5 121.5L473.5 127.5L478 136L479 155L490.5 186L492.5 205.5L497 215L500.5 224.5L497.5 240L498.5 253.5L496 262L492.5 270L493.5 280.5L492.5 291L487.5 301.5L477 313.5V320.5L480.5 331.5L473.5 339.5L470.5 347L468.5 360L463.5 374L458.5 384.5L445.5 403V414L441.5 416L430.5 417L426.5 419L414 439L409 443.5L401.5 445.5L393.5 446.5L387.5 452.5L385 458L380.5 463L372 466L365.5 470.5L357 473.5H347.5L340.5 478L333.5 484L323.5 489L311 491.5L299.5 497L283.5 495L278.5 497L273.5 500H268H262.5L259.5 496.5L254.5 495L240 497.5L199.5 497L181.5 492.5L166 485.5H156L151 480L148 470L143 466H136L129 469L125 468.5L122.5 465L121.5 460L119 457.5H114L111.5 454L107.5 450L102 448L90.5 447L86 441.5L84 434.5L78.5 427.5L69.5 419L64.5 412L60.5 403.5L46.5 394.5L43.5 389L41.5 383.5L34 381.5L30 377.5L28.5 372.5L25.5 359.5L19.5 351L14.5 342L14 333L14.5 324L9.5 317L5.5 308.5V304L11 295L12.5 286L10.5 281L6.5 276.5L0 268V264L1.5 251L5 237.5L6.5 186L10.5 159.5L15.5 152.5L22.5 145L26.5 133L36.5 124L44.5 112L50 98L58 84.5L64 78L70.5 73.5L82.5 69L89 57L91.5 51.5L97 47.5L110.5 44L123.5 37L129.5 34L137.5 32Z" fill="#7C4A12"/>
<path d="M90 95L108 82.5L129 73L149.5 64.5L177.5 51.5L190 46L204.5 42.5H218.5L238 46H249L262 39L275 34.5L289.5 33L314.5 37.5L330.5 45L344 54.5L361.5 61.5L376.5 68L390 76L399.5 84.5L412.5 104.5L425.5 121L437 132.5L447.5 148.5L455.5 190.5L465 232.5L468 266.5L463 294L450.5 318.5L423.5 364.5L409 392L390.5 414.5L372 432L353 446.5L330.5 461.5L307.5 471H294L282.5 469L253.5 463H237L214.5 464L201.5 463L185.5 457L175.5 446.5L161.5 439L134.5 436.5L119.5 429.5L102.5 414L86.5 395.5L72 378.5L60 358.5L41 311.5L32.5 262.5L41 211L47 180L55.5 154L66.5 125.5L77 109.5L90 95Z" fill="#F3CB8E"/>

</svg>
