<svg width="172" height="278" viewBox="0 0 172 278" fill="none" xmlns="http://www.w3.org/2000/svg">
<path d="M104.336 129.46L97.9771 202.892L97.9566 203.121L97.9888 203.347L108.347 276H60.5982L71.6217 203.365L71.6627 203.093L71.6295 202.821L62.6012 129.46H104.336Z" fill="#582F05" stroke="#582F05" stroke-width="4"/>
<mask id="path-2-inside-1_23_511" fill="white">
<path d="M78.5703 0C90.4068 0.000125715 100.849 5.79409 107.053 14.6191C110.647 13.3853 114.514 12.7119 118.544 12.7119C137.576 12.7119 153.005 27.6895 153.005 46.165C153.005 47.3952 152.934 48.6099 152.801 49.8057C163.967 55.34 171.613 66.6129 171.613 79.6191C171.613 94.7986 161.198 107.614 146.927 111.704C147.296 113.667 147.491 115.69 147.491 117.756C147.491 136.231 132.062 151.209 113.03 151.209C101.548 151.209 91.3794 145.755 85.1172 137.373C78.8549 145.755 68.6863 151.209 57.2041 151.209C39.6111 151.209 25.0979 138.41 23.0039 121.881C9.6042 117.296 0 104.9 0 90.3232C8.40473e-05 84.23 1.67822 78.5172 4.61035 73.5967C1.67839 68.6762 0 62.9633 0 56.8701C0.000249532 38.3946 15.4291 23.417 34.4609 23.417C38.2102 23.417 41.8191 24.0004 45.1982 25.0752C49.0289 10.654 62.5185 0 78.5703 0Z"/>
</mask>
<path d="M78.5703 0C90.4068 0.000125715 100.849 5.79409 107.053 14.6191C110.647 13.3853 114.514 12.7119 118.544 12.7119C137.576 12.7119 153.005 27.6895 153.005 46.165C153.005 47.3952 152.934 48.6099 152.801 49.8057C163.967 55.34 171.613 66.6129 171.613 79.6191C171.613 94.7986 161.198 107.614 146.927 111.704C147.296 113.667 147.491 115.69 147.491 117.756C147.491 136.231 132.062 151.209 113.03 151.209C101.548 151.209 91.3794 145.755 85.1172 137.373C78.8549 145.755 68.6863 151.209 57.2041 151.209C39.6111 151.209 25.0979 138.41 23.0039 121.881C9.6042 117.296 0 104.9 0 90.3232C8.40473e-05 84.23 1.67822 78.5172 4.61035 73.5967C1.67839 68.6762 0 62.9633 0 56.8701C0.000249532 38.3946 15.4291 23.417 34.4609 23.417C38.2102 23.417 41.8191 24.0004 45.1982 25.0752C49.0289 10.654 62.5185 0 78.5703 0Z" fill="#55A837"/>
<path d="M78.5703 0L78.5704 -4H78.5703V0ZM107.053 14.6191L103.78 16.9196L105.509 19.3782L108.352 18.4024L107.053 14.6191ZM118.544 12.7119V8.71191H118.544L118.544 12.7119ZM153.005 46.165H157.005V46.165L153.005 46.165ZM152.801 49.8057L148.825 49.3625L148.515 52.1459L151.024 53.3896L152.801 49.8057ZM171.613 79.6191L175.613 79.6192V79.6191H171.613ZM146.927 111.704L145.825 107.859L142.322 108.863L142.996 112.444L146.927 111.704ZM147.491 117.756L151.491 117.756V117.756H147.491ZM113.03 151.209L113.03 155.209H113.03V151.209ZM85.1172 137.373L88.3217 134.979L85.1172 130.69L81.9127 134.979L85.1172 137.373ZM57.2041 151.209L57.2041 155.209H57.2041V151.209ZM23.0039 121.881L26.9722 121.378L26.6587 118.904L24.2987 118.096L23.0039 121.881ZM0 90.3232L-4 90.3232V90.3232H0ZM4.61035 73.5967L8.04652 75.6443L9.26667 73.5967L8.04657 71.5491L4.61035 73.5967ZM0 56.8701L-4 56.8701V56.8701H0ZM34.4609 23.417L34.461 19.417H34.4609V23.417ZM45.1982 25.0752L43.9858 28.887L47.9864 30.1595L49.0642 26.1021L45.1982 25.0752ZM78.5703 0L78.5703 4C89.0806 4.00011 98.3115 9.14039 103.78 16.9196L107.053 14.6191L110.325 12.3187C103.386 2.44779 91.733 -3.99986 78.5704 -4L78.5703 0ZM107.053 14.6191L108.352 18.4024C111.534 17.3101 114.962 16.7119 118.544 16.7119L118.544 12.7119L118.544 8.71191C114.066 8.71193 109.76 9.46048 105.754 10.8359L107.053 14.6191ZM118.544 12.7119V16.7119C135.479 16.7119 149.005 30.0097 149.005 46.1651L153.005 46.165L157.005 46.165C157.005 25.3693 139.672 8.71191 118.544 8.71191V12.7119ZM153.005 46.165H149.005C149.005 47.2416 148.943 48.3083 148.825 49.3625L152.801 49.8057L156.776 50.2488C156.925 48.9116 157.005 47.5488 157.005 46.165H153.005ZM152.801 49.8057L151.024 53.3896C160.925 58.2964 167.613 68.237 167.613 79.6191H171.613H175.613C175.613 64.9887 167.01 52.3837 154.577 46.2217L152.801 49.8057ZM171.613 79.6191L167.613 79.6191C167.613 92.8971 158.495 104.227 145.825 107.859L146.927 111.704L148.029 115.549C163.9 111 175.613 96.7001 175.613 79.6192L171.613 79.6191ZM146.927 111.704L142.996 112.444C143.32 114.167 143.491 115.942 143.491 117.756H147.491H151.491C151.491 115.437 151.272 113.167 150.858 110.964L146.927 111.704ZM147.491 117.756L143.491 117.756C143.491 133.911 129.966 147.209 113.03 147.209V151.209V155.209C134.159 155.209 151.491 138.552 151.491 117.756L147.491 117.756ZM113.03 151.209L113.03 147.209C102.835 147.209 93.8441 142.371 88.3217 134.979L85.1172 137.373L81.9127 139.767C88.9147 149.14 100.261 155.209 113.03 155.209L113.03 151.209ZM85.1172 137.373L81.9127 134.979C76.3902 142.371 67.3992 147.209 57.2041 147.209V151.209V155.209C69.9734 155.209 81.3196 149.14 88.3217 139.767L85.1172 137.373ZM57.2041 151.209L57.2041 147.209C41.5589 147.209 28.8047 135.843 26.9722 121.378L23.0039 121.881L19.0356 122.384C21.3912 140.977 37.6633 155.209 57.2041 155.209L57.2041 151.209ZM23.0039 121.881L24.2987 118.096C12.406 114.027 4 103.075 4 90.3232H0H-4C-4 106.724 6.80246 120.566 21.7091 125.665L23.0039 121.881ZM0 90.3232L4 90.3233C4.00007 84.9757 5.47047 79.9672 8.04652 75.6443L4.61035 73.5967L1.17418 71.5491C-2.11404 77.0671 -3.99991 83.4842 -4 90.3232L0 90.3232ZM4.61035 73.5967L8.04657 71.5491C5.47059 67.2261 4 62.2175 4 56.8701H0H-4C-4 63.7091 -2.11381 70.1263 1.17414 75.6442L4.61035 73.5967ZM0 56.8701L4 56.8702C4.00022 40.7148 17.5255 27.417 34.4609 27.417V23.417V19.417C13.3327 19.417 -3.99972 36.0744 -4 56.8701L0 56.8701ZM34.4609 23.417L34.4609 27.417C37.7933 27.417 40.9935 27.9353 43.9858 28.887L45.1982 25.0752L46.4106 21.2634C42.6447 20.0655 38.6271 19.417 34.461 19.417L34.4609 23.417ZM45.1982 25.0752L49.0642 26.1021C52.4221 13.4608 64.304 4 78.5703 4V0V-4C60.733 -4 45.6358 7.84718 41.3323 24.0483L45.1982 25.0752Z" fill="#55A837" mask="url(#path-2-inside-1_23_511)"/>
</svg>
