<svg width="402" height="157" viewBox="0 0 402 157" fill="none" xmlns="http://www.w3.org/2000/svg">
<path d="M202.5 0L209.5 0.5L216 2L222 4.5L230 6.5L239.5 9.5L244.5 10L251 12.5L258.5 14L267 16L269.5 18L272 17.5L274.5 18L280 21L289.5 23L302.5 25.5L312 27.5L316.5 30H323.5L330 31L334 32L340 34.5L359.5 38.5L363.5 39.5L366.5 41L372.5 41.5L382 44.5L390.5 49L398 51.5L401.5 54V56.5L398 60L391.5 62L390.5 64L391.5 66.5L386.5 68.5L382 71L376 73L368.5 77L367.5 79L361.5 83.5L358 85.5L353.5 86.5L353 88.5L354.5 91.5L349.5 92.5L345 94L340.5 98L332.5 102L323.5 105.5L314 112.5L305 116.5L300 119.5L299.5 121.5L290 123L286 125.5L285 128L280 129L277 131.5L274 133L270 133.5L268.5 136L266 138L263 138.5L260 140L256.5 143L249 142.5L247.5 144.5L242.5 147.5V149.5L240.5 150.5L233 152L230 155H226L223.5 156.5L215.5 157H207L202 155.5H196.5L189 153H182.5L178.5 151L170.5 150.5L165 147.5L160 147L155.5 145.5H150L146 143.5L142 142.5L130.5 140L127 137L122 134.5L113.5 133.5L105.5 132.5L102 130.5L97.5 131L94.5 130.5L88.5 126L82.5 125L74.5 122L71 120.5L67.5 120L61 117H56.5L53.5 116L52.5 114.5L48.5 113.5L42.5 112L38.5 111L35.5 109.5H31.5H27L25 109L24 107L22 106L17.5 105.5L14 106H12L9.5 103L6.5 101L0 98V95.5L16 87L31 81H35L38.5 77L42.5 74.5L57 68.5L67 65L74.5 61.5L79 57.5L82 56L92 49.5L106.5 43.5L114 41L115.5 40.5L117 38L119.5 36L132.5 29.5L138 28.5L141.5 26L146.5 23L155.5 20L163.5 15.5L168.5 13.5L172 11L175.5 9.5L178.5 6.5L186.5 4.5L194 0.5L202.5 0Z" fill="#BC7834"/>
<path d="M69.5 79.5L76 80L84.5 83H95L103.5 84L114 86.5L130.5 91L138 92.5L147.5 95.5L152 99L158.5 100L169 102L175 104L180.5 106L185 106.5L187.5 107.5L190.5 110L199 111.5L204 112.5L210.5 115L221 118L228 121L234.5 124.5L233 128.5L229 130.5L225 131L226.5 133L225 134.5H221L202.5 131L195 128L189.5 128.5L170 121.5L166 122L160.5 119L153.5 116.5H147L143.5 113.5L138.5 111.5H135L133.5 110.5L132 109L128 108.5H124.5L120 106L115 105.5L111.5 104.5H109.5L104 102.5L100.5 103.5L97.5 100.5L91.5 99.5L84.5 99L82.5 97L80 95.5L74.5 94.5H71L65 92.5L57 90.5L54.5 88V84L59 81.5L64.5 80L69.5 79.5Z" fill="#A55A20"/>
<path d="M117 54.5L123.5 55L132 58H142.5L151 59L161.5 61.5L178 66L185.5 67.5L195 70.5L199.5 74L206 75L216.5 77L222.5 79L228 81L232.5 81.5L235 82.5L238 85L246.5 86.5L251.5 87.5L258 90L268.5 93L275.5 96L282 99.5L280.5 103.5L276.5 105.5L272.5 106L274 108L272.5 109.5H268.5L250 106L242.5 103L237 103.5L217.5 96.5L213.5 97L208 94L201 91.5H194.5L191 88.5L186 86.5H182.5L181 85.5L179.5 84L175.5 83.5H172L167.5 81L162.5 80.5L159 79.5H157L151.5 77.5L148 78.5L145 75.5L139 74.5L132 74L130 72L127.5 70.5L122 69.5H118.5L112.5 67.5L104.5 65.5L102 63V59L106.5 56.5L112 55L117 54.5Z" fill="#A55A20"/>
<path d="M158 31.5L164.5 32L173 35H183.5L192 36L202.5 38.5L219 43L226.5 44.5L236 47.5L240.5 51L247 52L257.5 54L263.5 56L269 58L273.5 58.5L276 59.5L279 62L287.5 63.5L292.5 64.5L299 67L309.5 70L316.5 73L323 76.5L321.5 80.5L317.5 82.5L313.5 83L315 85L313.5 86.5H309.5L291 83L283.5 80L278 80.5L258.5 73.5L254.5 74L249 71L242 68.5H235.5L232 65.5L227 63.5H223.5L222 62.5L220.5 61L216.5 60.5H213L208.5 58L203.5 57.5L200 56.5H198L192.5 54.5L189 55.5L186 52.5L180 51.5L173 51L171 49L168.5 47.5L163 46.5H159.5L153.5 44.5L145.5 42.5L143 40V36L147.5 33.5L153 32L158 31.5Z" fill="#A55A20"/>
<path d="M194 12.5L200.5 13L209 16H219.5L228 17L238.5 19.5L255 24L262.5 25.5L272 28.5L276.5 32L283 33L293.5 35L299.5 37L305 39L309.5 39.5L312 40.5L315 43L323.5 44.5L328.5 45.5L335 48L345.5 51L352.5 54L359 57.5L357.5 61.5L353.5 63.5L349.5 64L351 66L349.5 67.5H345.5L327 64L319.5 61L314 61.5L294.5 54.5L290.5 55L285 52L278 49.5H271.5L268 46.5L263 44.5H259.5L258 43.5L256.5 42L252.5 41.5H249L244.5 39L239.5 38.5L236 37.5H234L228.5 35.5L225 36.5L222 33.5L216 32.5L209 32L207 30L204.5 28.5L199 27.5H195.5L189.5 25.5L181.5 23.5L179 21V17L183.5 14.5L189 13L194 12.5Z" fill="#A55A20"/>
</svg>
